<svg width="132" height="26" viewBox="0 0 132 26" fill="none" xmlns="http://www.w3.org/2000/svg">
<path d="M14.9297 26H0.128906V0.300781H14.9297V4.76562H5.57812V10.4082H14.2793V14.873H5.57812V21.5H14.9297V26Z" fill="#17C6AA"/>
<path d="M18.1465 18.5469V14.1523H27.5859V18.5469H18.1465ZM42.791 26L36.6035 5.83789H36.4453C36.4688 6.31836 36.5039 7.04492 36.5508 8.01758C36.6094 8.97852 36.6621 10.0039 36.709 11.0938C36.7559 12.1836 36.7793 13.168 36.7793 14.0469V26H31.9102V0.300781H39.3281L45.4102 19.9531H45.5156L51.9668 0.300781H59.3848V26H54.3047V13.8359C54.3047 13.0273 54.3164 12.0957 54.3398 11.041C54.375 9.98633 54.416 8.98438 54.4629 8.03516C54.5098 7.07422 54.5449 6.35352 54.5684 5.87305H54.4102L47.7832 26H42.791ZM81.6035 26L79.7402 19.8828H70.3711L68.5078 26H62.6367L71.707 0.195312H78.3691L87.4746 26H81.6035ZM78.4395 15.3125L76.5762 9.33594C76.459 8.9375 76.3008 8.42773 76.1016 7.80664C75.9141 7.17383 75.7207 6.53516 75.5215 5.89062C75.334 5.23438 75.1816 4.66602 75.0645 4.18555C74.9473 4.66602 74.7832 5.26367 74.5723 5.97852C74.373 6.68164 74.1797 7.34961 73.9922 7.98242C73.8047 8.61523 73.6699 9.06641 73.5879 9.33594L71.7422 15.3125H78.4395ZM98.2148 0.300781C100.547 0.300781 102.469 0.582031 103.98 1.14453C105.504 1.70703 106.635 2.55664 107.373 3.69336C108.111 4.83008 108.48 6.26562 108.48 8C108.48 9.17188 108.258 10.1973 107.812 11.0762C107.367 11.9551 106.781 12.6992 106.055 13.3086C105.328 13.918 104.543 14.416 103.699 14.8027L111.258 26H105.211L99.0762 16.1387H96.1758V26H90.7266V0.300781H98.2148ZM97.8281 4.76562H96.1758V11.709H97.9336C99.7383 11.709 101.027 11.4102 101.801 10.8125C102.586 10.2031 102.979 9.3125 102.979 8.14062C102.979 6.92188 102.557 6.05469 101.713 5.53906C100.881 5.02344 99.5859 4.76562 97.8281 4.76562ZM124.406 26H118.957V4.83594H111.979V0.300781H131.385V4.83594H124.406V26Z" fill="black"/>
</svg>
